<svg width="40" height="40" viewBox="0 0 40 40" fill="none" xmlns="http://www.w3.org/2000/svg">
<path d="M38 20L20 38L2 20L20 2L38 20ZM20.0303 9.33301C14.1557 9.33303 9.39355 14.0951 9.39355 19.9697C9.39357 25.8443 14.1557 30.6064 20.0303 30.6064C25.9049 30.6064 30.667 25.8443 30.667 19.9697C30.667 14.0951 25.9049 9.33301 20.0303 9.33301ZM20.0303 11.7568C24.5659 11.7568 28.2432 15.4341 28.2432 19.9697C28.2431 24.5054 24.5659 28.1826 20.0303 28.1826C15.4946 28.1826 11.8174 24.5054 11.8174 19.9697C11.8174 15.4341 15.4946 11.7569 20.0303 11.7568Z" fill="#CF0574"/>
</svg>
