<svg width="16" height="16" viewBox="0 0 16 16" fill="none" xmlns="http://www.w3.org/2000/svg">
<path d="M16 8L8 16L0 8L8 0L16 8ZM8.01367 3.25879C5.40281 3.25879 3.28624 5.37549 3.28613 7.98633C3.28613 10.5973 5.40274 12.7139 8.01367 12.7139C10.6245 12.7138 12.7412 10.5972 12.7412 7.98633C12.7411 5.37556 10.6244 3.2589 8.01367 3.25879ZM8.01367 4.33691C10.0294 4.33702 11.663 5.97064 11.6631 7.98633C11.6631 10.0021 10.0294 11.6366 8.01367 11.6367C5.99782 11.6367 4.36328 10.0022 4.36328 7.98633C4.36339 5.97057 5.99789 4.33691 8.01367 4.33691Z" fill="#CF0574"/>
</svg>
